<svg xmlns="http://www.w3.org/2000/svg" xmlns:xlink="http://www.w3.org/1999/xlink" width="500" zoomAndPan="magnify" viewBox="0 0 375 374.999991" height="500" preserveAspectRatio="xMidYMid meet" version="1.0"><defs><clipPath id="755a56c135"><path d="M 149 52.210938 L 285 52.210938 L 285 188 L 149 188 Z M 149 52.210938 " clip-rule="nonzero"/></clipPath><clipPath id="f6c732a85a"><path d="M 63 149 L 312.558594 149 L 312.558594 322.960938 L 63 322.960938 Z M 63 149 " clip-rule="nonzero"/></clipPath></defs><rect x="-37.5" width="450" fill="#ffffff" y="-37.499999" height="449.999989" fill-opacity="1"/><rect x="-37.5" width="450" fill="#000000" y="-37.499999" height="449.999989" fill-opacity="1"/><g clip-path="url(#755a56c135)"><path fill="#ffffff" d="M 215.105469 118.484375 L 284.265625 187.585938 L 284.265625 52.210938 L 215.105469 52.617188 L 215.105469 103.402344 C 182.375 83.980469 149.816406 53.144531 149.816406 53.144531 L 215.105469 118.375 Z M 215.105469 118.484375 " fill-opacity="1" fill-rule="nonzero"/></g><g clip-path="url(#f6c732a85a)"><path fill="#ffffff" d="M 281.839844 216.683594 L 215.105469 149.601562 L 215.105469 221.128906 C 213.484375 232.847656 207.019531 240.933594 202.972656 244.972656 C 198.925781 249.015625 190.433594 255.878906 177.492188 257.09375 L 164.144531 257.09375 C 160.910156 256.285156 158.074219 255.476562 155.25 254.261719 L 154.035156 254.261719 C 150.394531 252.644531 147.570312 250.625 145.140625 248.601562 C 144.734375 248.199219 144.332031 247.792969 143.925781 247.390625 C 143.117188 246.582031 142.308594 245.773438 141.5 244.964844 C 139.070312 242.539062 135.832031 238.496094 133.414062 232.84375 C 131.792969 229.609375 130.582031 225.5625 129.769531 221.125 L 63.03125 221.125 C 65.863281 272.445312 104.285156 314.066406 154.03125 322.152344 L 156.457031 322.152344 C 159.289062 322.558594 162.117188 322.960938 164.949219 322.960938 L 184.363281 322.960938 C 186.792969 322.558594 188.808594 322.152344 190.832031 321.75 C 239.816406 313.59375 277.574219 272.949219 281.503906 222.796875 C 297.558594 233.191406 312.324219 247.179688 312.324219 247.179688 L 281.832031 216.710938 C 281.839844 216.695312 281.839844 216.691406 281.839844 216.683594 Z M 281.839844 216.683594 " fill-opacity="1" fill-rule="nonzero"/></g><path fill="#000000" d="M 274.820312 164.820312 L 224.535156 114.578125 L 224.535156 61.992188 L 274.820312 61.695312 Z M 227.238281 113.460938 L 272.125 158.3125 L 272.125 64.402344 L 227.238281 64.664062 Z M 227.238281 113.460938 " fill-opacity="1" fill-rule="nonzero"/><path fill="#000000" d="M 164.949219 313.53125 C 162.78125 313.53125 160.359375 313.183594 157.789062 312.820312 L 157.027344 312.710938 L 154.914062 312.722656 C 113.542969 305.644531 81.035156 273.265625 73.769531 232.136719 L 73.488281 230.554688 L 122.355469 230.554688 L 122.664062 231.472656 C 123.304688 233.375 124.03125 235.15625 124.824219 236.777344 C 127.933594 243.914062 131.972656 248.789062 134.820312 251.632812 L 139.089844 255.847656 C 142.769531 258.910156 146.300781 261.144531 150.195312 262.878906 L 152.027344 263.691406 L 153.644531 263.773438 C 156.582031 264.871094 159.441406 265.632812 161.863281 266.234375 L 162.988281 266.515625 L 178.378906 266.476562 C 193.34375 265.078125 203.644531 257.636719 209.652344 251.632812 C 214.316406 246.972656 222.449219 236.972656 224.464844 222.414062 L 224.570312 221.6875 L 224.554688 172.460938 L 272.242188 220.398438 L 272.105469 222.054688 C 268.519531 267.75 234.464844 304.917969 189.289062 312.441406 L 188.972656 312.496094 C 187.3125 312.832031 185.632812 313.167969 183.691406 313.503906 Z M 157.226562 310.03125 L 158.171875 310.152344 C 160.640625 310.503906 162.972656 310.839844 164.949219 310.839844 L 183.453125 310.839844 C 185.140625 310.523438 186.800781 310.195312 188.453125 309.867188 L 188.816406 309.796875 C 232.785156 302.472656 265.917969 266.308594 269.410156 221.851562 L 269.445312 221.425781 L 227.238281 179 L 227.121094 222.789062 C 225 238.132812 216.449219 248.652344 211.546875 253.550781 C 205.226562 259.863281 194.386719 267.695312 178.617188 269.167969 L 178.117188 269.214844 L 162.644531 269.222656 L 161.195312 268.859375 C 158.769531 268.257812 155.902344 267.488281 152.925781 266.394531 L 151.191406 266.277344 L 149.097656 265.34375 C 144.96875 263.507812 141.238281 261.152344 137.363281 257.921875 L 136.992188 257.613281 L 132.910156 253.542969 C 129.902344 250.542969 125.628906 245.390625 122.378906 237.914062 C 121.675781 236.5 121.019531 234.925781 120.421875 233.253906 L 76.726562 233.253906 C 84.332031 272.511719 115.65625 303.273438 155.148438 310.050781 Z M 157.226562 310.03125 " fill-opacity="1" fill-rule="nonzero"/></svg>