<svg xmlns="http://www.w3.org/2000/svg" xmlns:xlink="http://www.w3.org/1999/xlink" width="500" zoomAndPan="magnify" viewBox="0 0 375 374.999991" height="500" preserveAspectRatio="xMidYMid meet" version="1.0"><defs><g/><clipPath id="1f1d85e4a9"><path d="M 115 65.796875 L 187 65.796875 L 187 138 L 115 138 Z M 115 65.796875 " clip-rule="nonzero"/></clipPath><clipPath id="f447e38a5a"><path d="M 69.125 117 L 201.320312 117 L 201.320312 208.941406 L 69.125 208.941406 Z M 69.125 117 " clip-rule="nonzero"/></clipPath><clipPath id="323f32c938"><path d="M 190.4375 95 L 305 95 L 305 208.941406 L 190.4375 208.941406 Z M 190.4375 95 " clip-rule="nonzero"/></clipPath><clipPath id="0a62a44b18"><path d="M 206 65.796875 L 305.792969 65.796875 L 305.792969 122 L 206 122 Z M 206 65.796875 " clip-rule="nonzero"/></clipPath><clipPath id="32d349d66c"><path d="M 69.125 290.621094 L 305.875 290.621094 L 305.875 315.824219 L 69.125 315.824219 Z M 69.125 290.621094 " clip-rule="nonzero"/></clipPath></defs><rect x="-37.5" width="450" fill="#ffffff" y="-37.499999" height="449.999989" fill-opacity="1"/><rect x="-37.5" width="450" fill="#000000" y="-37.499999" height="449.999989" fill-opacity="1"/><g clip-path="url(#1f1d85e4a9)"><path fill="#ffffff" d="M 149.738281 100.835938 L 186.347656 137.371094 L 186.347656 65.796875 L 149.738281 66.011719 L 149.738281 92.863281 C 132.414062 82.59375 115.179688 66.289062 115.179688 66.289062 L 149.738281 100.777344 Z M 149.738281 100.835938 " fill-opacity="1" fill-rule="nonzero"/></g><g clip-path="url(#f447e38a5a)"><path fill="#ffffff" d="M 185.0625 152.753906 L 149.738281 117.289062 L 149.738281 155.105469 C 148.878906 161.300781 145.457031 165.574219 143.316406 167.707031 C 141.171875 169.847656 136.679688 173.476562 129.828125 174.117188 L 122.761719 174.117188 C 121.050781 173.691406 119.550781 173.261719 118.054688 172.621094 L 117.410156 172.621094 C 115.484375 171.765625 113.988281 170.699219 112.703125 169.628906 C 112.488281 169.414062 112.273438 169.203125 112.0625 168.988281 C 111.632812 168.558594 111.203125 168.132812 110.777344 167.703125 C 109.492188 166.421875 107.777344 164.285156 106.496094 161.296875 C 105.640625 159.585938 104.996094 157.449219 104.566406 155.101562 L 69.242188 155.101562 C 70.738281 182.234375 91.078125 204.238281 117.410156 208.515625 L 118.695312 208.515625 C 120.191406 208.726562 121.6875 208.941406 123.1875 208.941406 L 133.464844 208.941406 C 134.75 208.726562 135.816406 208.515625 136.890625 208.300781 C 162.816406 203.988281 182.800781 182.5 184.882812 155.984375 C 193.382812 161.480469 201.199219 168.875 201.199219 168.875 L 185.058594 152.765625 C 185.0625 152.761719 185.0625 152.757812 185.0625 152.753906 Z M 185.0625 152.753906 " fill-opacity="1" fill-rule="nonzero"/></g><path fill="#000000" d="M 181.347656 125.335938 L 154.730469 98.769531 L 154.730469 70.96875 L 181.347656 70.8125 Z M 156.160156 98.179688 L 179.921875 121.890625 L 179.921875 72.242188 L 156.160156 72.382812 Z M 156.160156 98.179688 " fill-opacity="1" fill-rule="nonzero"/><path fill="#000000" d="M 123.1875 203.957031 C 122.039062 203.957031 120.757812 203.773438 119.398438 203.578125 L 118.996094 203.523438 L 117.875 203.527344 C 95.976562 199.785156 78.769531 182.667969 74.925781 160.921875 L 74.777344 160.085938 L 100.644531 160.085938 L 100.808594 160.570312 C 101.144531 161.578125 101.527344 162.519531 101.949219 163.375 C 103.59375 167.152344 105.734375 169.726562 107.238281 171.230469 L 109.5 173.457031 C 111.449219 175.078125 113.316406 176.257812 115.378906 177.175781 L 116.347656 177.605469 L 117.207031 177.648438 C 118.757812 178.230469 120.273438 178.632812 121.554688 178.949219 L 122.148438 179.097656 L 130.296875 179.078125 C 138.21875 178.339844 143.671875 174.402344 146.851562 171.230469 C 149.320312 168.765625 153.625 163.480469 154.691406 155.78125 L 154.746094 155.398438 L 154.738281 129.375 L 179.980469 154.714844 L 179.910156 155.59375 C 178.011719 179.75 159.984375 199.402344 136.070312 203.378906 L 135.90625 203.410156 C 135.027344 203.585938 134.136719 203.765625 133.109375 203.941406 Z M 119.101562 202.105469 L 119.601562 202.171875 C 120.90625 202.355469 122.140625 202.53125 123.1875 202.53125 L 132.984375 202.53125 C 133.875 202.367188 134.753906 202.191406 135.628906 202.019531 L 135.820312 201.980469 C 159.097656 198.109375 176.632812 178.992188 178.480469 155.484375 L 178.5 155.261719 L 156.160156 132.832031 L 156.097656 155.980469 C 154.976562 164.09375 150.449219 169.652344 147.851562 172.246094 C 144.507812 175.582031 138.769531 179.722656 130.421875 180.5 L 130.160156 180.527344 L 121.96875 180.53125 L 121.203125 180.339844 C 119.917969 180.019531 118.398438 179.613281 116.824219 179.035156 L 115.90625 178.972656 L 114.796875 178.480469 C 112.613281 177.507812 110.636719 176.261719 108.585938 174.554688 L 108.390625 174.394531 L 106.230469 172.242188 C 104.636719 170.652344 102.375 167.929688 100.652344 163.976562 C 100.285156 163.230469 99.933594 162.398438 99.621094 161.511719 L 76.492188 161.511719 C 80.515625 182.269531 97.097656 198.53125 118 202.117188 Z M 119.101562 202.105469 " fill-opacity="1" fill-rule="nonzero"/><g clip-path="url(#323f32c938)"><path fill="#ffffff" d="M 276.074219 137.472656 L 226.171875 137.472656 C 222.183594 137.472656 218.859375 134.152344 218.859375 130.164062 C 218.859375 126.179688 222.179688 122.859375 226.171875 122.859375 L 242.261719 122.859375 C 250.519531 126.5625 260.398438 135.925781 260.398438 135.925781 L 245.867188 121.410156 L 245.816406 121.394531 L 219.527344 95.132812 L 218.363281 95.464844 C 217.53125 95.632812 216.699219 95.796875 215.867188 96.128906 C 210.214844 97.789062 205.066406 100.945312 200.910156 105.09375 C 196.757812 109.242188 193.597656 114.390625 191.9375 120.035156 C 190.9375 123.359375 190.4375 126.847656 190.4375 130.332031 C 190.4375 133.816406 190.9375 137.304688 191.933594 140.625 C 193.597656 146.269531 196.753906 151.414062 200.90625 155.566406 C 205.0625 159.714844 210.214844 162.871094 215.863281 164.53125 C 219.1875 165.527344 222.679688 166.023438 226.167969 166.023438 L 269.214844 166.023438 C 273.203125 166.023438 276.527344 169.34375 276.527344 173.332031 C 276.527344 177.316406 273.203125 180.636719 269.214844 180.636719 L 190.601562 180.636719 L 190.601562 208.863281 L 269.21875 208.863281 C 277.03125 208.863281 284.507812 206.371094 290.65625 201.722656 C 296.640625 197.238281 301.125 190.765625 303.289062 183.625 C 304.285156 180.304688 304.785156 176.816406 304.785156 173.332031 C 304.78125 136.175781 276.074219 137.472656 276.074219 137.472656 Z M 276.074219 137.472656 " fill-opacity="1" fill-rule="nonzero"/></g><g clip-path="url(#0a62a44b18)"><path fill="#ffffff" d="M 248.957031 92.808594 C 233.128906 91.546875 206.03125 65.886719 206.03125 65.886719 L 261.238281 121.035156 L 305.78125 121.035156 L 305.78125 92.808594 Z M 248.957031 92.808594 " fill-opacity="1" fill-rule="nonzero"/></g><path fill="#000000" d="M 301.902344 117.160156 L 262.84375 117.160156 L 240.292969 94.632812 L 242.496094 95.351562 C 244.714844 96.078125 246.78125 96.523438 248.644531 96.671875 L 248.820312 96.6875 L 301.902344 96.683594 Z M 263.304688 116.054688 L 300.792969 116.054688 L 300.792969 97.789062 L 248.558594 97.773438 C 247.214844 97.667969 245.773438 97.414062 244.25 97.019531 Z M 263.304688 116.054688 " fill-opacity="1" fill-rule="nonzero"/><path fill="#000000" d="M 269.21875 204.988281 L 194.480469 204.988281 L 194.480469 184.511719 L 269.21875 184.511719 C 275.386719 184.511719 280.410156 179.496094 280.410156 173.332031 C 280.410156 167.164062 275.390625 162.152344 269.21875 162.152344 L 226.171875 162.152344 C 223.019531 162.152344 219.929688 161.703125 216.980469 160.820312 C 212.042969 159.371094 207.433594 156.605469 203.648438 152.828125 C 199.867188 149.046875 197.101562 144.449219 195.652344 139.527344 C 194.765625 136.574219 194.316406 133.476562 194.316406 130.328125 C 194.316406 127.179688 194.761719 124.09375 195.648438 121.148438 C 197.101562 116.214844 199.867188 111.609375 203.648438 107.832031 C 207.433594 104.050781 212.035156 101.289062 216.957031 99.84375 L 217.300781 99.726562 C 217.519531 99.636719 217.757812 99.5625 218.023438 99.496094 L 218.328125 99.417969 L 237.910156 118.980469 L 226.164062 118.980469 C 219.996094 118.980469 214.972656 123.992188 214.972656 130.160156 C 214.972656 136.324219 219.992188 141.339844 226.164062 141.339844 L 276.414062 141.339844 C 280.511719 141.339844 300.90625 142.882812 300.90625 173.332031 C 300.90625 176.480469 300.457031 179.566406 299.574219 182.511719 C 297.636719 188.921875 293.640625 194.644531 288.332031 198.621094 C 282.820312 202.785156 276.210938 204.988281 269.21875 204.988281 Z M 195.589844 203.882812 L 269.21875 203.882812 C 275.96875 203.882812 282.347656 201.757812 287.664062 197.738281 C 292.789062 193.898438 296.640625 188.378906 298.511719 182.195312 C 299.367188 179.351562 299.796875 176.371094 299.796875 173.332031 C 299.796875 143.933594 280.324219 142.445312 276.421875 142.445312 L 276.1875 142.453125 L 226.171875 142.453125 C 219.390625 142.453125 213.871094 136.9375 213.871094 130.164062 C 213.871094 123.390625 219.390625 117.878906 226.171875 117.878906 L 235.242188 117.878906 L 218 100.65625 C 217.898438 100.6875 217.804688 100.722656 217.714844 100.753906 L 217.269531 100.910156 C 212.523438 102.304688 208.085938 104.96875 204.433594 108.617188 C 200.78125 112.265625 198.109375 116.710938 196.707031 121.464844 C 195.855469 124.308594 195.421875 127.289062 195.421875 130.332031 C 195.421875 133.371094 195.855469 136.363281 196.714844 139.214844 C 198.113281 143.960938 200.78125 148.398438 204.429688 152.046875 C 208.082031 155.695312 212.53125 158.363281 217.292969 159.761719 C 220.140625 160.617188 223.125 161.046875 226.167969 161.046875 L 269.214844 161.046875 C 275.996094 161.046875 281.511719 166.558594 281.511719 173.332031 C 281.511719 180.109375 275.996094 185.621094 269.214844 185.621094 L 195.589844 185.621094 Z M 195.589844 203.882812 " fill-opacity="1" fill-rule="nonzero"/><g fill="#ffffff" fill-opacity="1"><g transform="translate(66.773438, 245.836273)"><g><path d="M 13.785156 -14.710938 L 1.796875 -12.804688 C 1.796875 -4.304688 7.628906 0.492188 17.980469 0.492188 C 28.277344 0.492188 34.105469 -4.304688 34.105469 -12.804688 L 34.105469 -27.242188 L 22.066406 -27.242188 L 22.066406 -12.804688 C 22.066406 -9.699219 20.59375 -7.953125 17.980469 -7.953125 C 15.308594 -7.953125 13.785156 -9.699219 13.785156 -12.804688 Z M 13.785156 -14.710938 "/></g></g></g><g fill="#ffffff" fill-opacity="1"><g transform="translate(103.108587, 245.836273)"><g><path d="M 2.234375 -27.242188 L 2.234375 -12.964844 C 2.234375 -4.359375 8.0625 0.492188 18.414062 0.492188 C 28.710938 0.492188 34.542969 -4.359375 34.542969 -12.964844 L 34.542969 -27.242188 L 22.5 -27.242188 L 22.5 -12.964844 C 22.5 -9.753906 21.03125 -7.953125 18.414062 -7.953125 C 15.800781 -7.953125 14.328125 -9.753906 14.328125 -12.964844 L 14.328125 -27.242188 Z M 2.234375 -27.242188 "/></g></g></g><g fill="#ffffff" fill-opacity="1"><g transform="translate(139.879539, 245.836273)"><g><path d="M 31.109375 -8.445312 L 14.328125 -8.445312 L 14.328125 -27.242188 L 2.234375 -27.242188 L 2.234375 0 L 31.109375 0 Z M 31.109375 -8.445312 "/></g></g></g><g fill="#ffffff" fill-opacity="1"><g transform="translate(172.837205, 245.836273)"><g><path d="M 14.328125 -27.242188 L 2.234375 -27.242188 L 2.234375 0 L 14.328125 0 Z M 14.328125 -27.242188 "/></g></g></g><g fill="#ffffff" fill-opacity="1"><g transform="translate(189.397755, 245.836273)"><g><path d="M 26.96875 -4.140625 L 28.984375 0 L 40.589844 0 L 26.640625 -27.242188 L 14.546875 -27.242188 L 0.382812 0 L 12.039062 0 L 14.109375 -4.140625 Z M 23.535156 -10.949219 L 17.542969 -10.949219 L 20.59375 -17.707031 Z M 23.535156 -10.949219 "/></g></g></g><g fill="#ffffff" fill-opacity="1"><g transform="translate(230.417794, 245.836273)"><g><path d="M 2.234375 0 L 14.328125 0 L 14.328125 -12.476562 L 24.246094 -0.0546875 L 34.542969 0 L 34.542969 -27.242188 L 22.5 -27.242188 L 22.5 -14.875 L 12.53125 -27.296875 L 2.234375 -27.296875 Z M 2.234375 0 "/></g></g></g><g fill="#ffffff" fill-opacity="1"><g transform="translate(267.188746, 245.836273)"><g><path d="M 26.96875 -4.140625 L 28.984375 0 L 40.589844 0 L 26.640625 -27.242188 L 14.546875 -27.242188 L 0.382812 0 L 12.039062 0 L 14.109375 -4.140625 Z M 23.535156 -10.949219 L 17.542969 -10.949219 L 20.59375 -17.707031 Z M 23.535156 -10.949219 "/></g></g></g><g fill="#ffffff" fill-opacity="1"><g transform="translate(102.679685, 282.58627)"><g><path d="M 18.632812 0.382812 C 10.515625 0.4375 4.683594 -2.398438 2.398438 -7.410156 L 12.148438 -9.699219 C 13.128906 -7.898438 15.472656 -6.863281 18.632812 -6.863281 C 22.28125 -6.863281 24.300781 -7.410156 24.300781 -8.390625 C 24.300781 -11.769531 1.363281 -8.28125 1.363281 -18.578125 C 1.363281 -24.460938 7.574219 -27.730469 18.578125 -27.730469 C 26.695312 -27.730469 32.527344 -24.898438 34.8125 -19.832031 L 25.0625 -17.542969 C 24.136719 -19.449219 21.792969 -20.484375 18.578125 -20.484375 C 14.929688 -20.484375 12.914062 -19.941406 12.914062 -18.851562 C 12.914062 -15.910156 35.847656 -18.960938 35.847656 -8.664062 C 35.847656 -2.722656 29.636719 0.492188 18.632812 0.382812 Z M 18.632812 0.382812 "/></g></g></g><g fill="#ffffff" fill-opacity="1"><g transform="translate(140.267768, 282.58627)"><g><path d="M 14.328125 -27.242188 L 2.234375 -27.242188 L 2.234375 0 L 14.328125 0 Z M 14.328125 -27.242188 "/></g></g></g><g fill="#ffffff" fill-opacity="1"><g transform="translate(156.828317, 282.58627)"><g><path d="M 31.109375 -8.445312 L 14.328125 -8.445312 L 14.328125 -27.242188 L 2.234375 -27.242188 L 2.234375 0 L 31.109375 0 Z M 31.109375 -8.445312 "/></g></g></g><g fill="#ffffff" fill-opacity="1"><g transform="translate(189.785984, 282.58627)"><g><path d="M 12.964844 -27.242188 L 20.648438 -12.09375 L 28.496094 -27.242188 L 40.96875 -27.242188 L 26.640625 0 L 14.65625 0 L 0.542969 -27.242188 Z M 12.964844 -27.242188 "/></g></g></g><g fill="#ffffff" fill-opacity="1"><g transform="translate(231.2963, 282.58627)"><g><path d="M 26.96875 -4.140625 L 28.984375 0 L 40.589844 0 L 26.640625 -27.242188 L 14.546875 -27.242188 L 0.382812 0 L 12.039062 0 L 14.109375 -4.140625 Z M 23.535156 -10.949219 L 17.542969 -10.949219 L 20.59375 -17.707031 Z M 23.535156 -10.949219 "/></g></g></g><g clip-path="url(#32d349d66c)"><path fill="#ffffff" d="M 69.125 290.621094 L 305.875 290.621094 L 305.875 315.824219 L 69.125 315.824219 Z M 69.125 290.621094 " fill-opacity="1" fill-rule="nonzero"/></g><g fill="#000000" fill-opacity="1"><g transform="translate(114.411485, 308.847227)"><g><path d="M 9.941406 0 L 10.003906 -5.5 L 5.230469 -5.5 L 5.230469 -3.652344 L 6.183594 -3.652344 C 5.976562 -3.070312 5.664062 -2.761719 5.292969 -2.761719 C 4.378906 -2.761719 3.882812 -3.632812 3.882812 -5.1875 C 3.882812 -6.765625 4.378906 -7.636719 5.292969 -7.636719 C 5.996094 -7.636719 6.453125 -7.078125 6.621094 -6.058594 L 9.898438 -6.640625 C 9.484375 -9.132812 7.867188 -10.542969 5.269531 -10.542969 C 2.242188 -10.542969 0.558594 -8.613281 0.558594 -5.1875 C 0.558594 -1.785156 2.242188 0.167969 5.269531 0.167969 C 6.351562 0.167969 7.285156 -0.289062 8.074219 -1.140625 L 8.445312 0 Z M 9.941406 0 "/></g></g></g><g fill="#000000" fill-opacity="1"><g transform="translate(125.072995, 308.847227)"><g><path d="M 8.53125 -4.484375 C 9.296875 -5.023438 9.710938 -5.894531 9.710938 -7.054688 C 9.710938 -9.171875 8.425781 -10.375 6.164062 -10.375 L 0.683594 -10.375 L 0.683594 0 L 4.046875 0 L 4.046875 -3.734375 L 5.292969 -3.734375 C 6.121094 -3.589844 6.578125 -3.03125 6.578125 -2.136719 L 6.578125 0 L 9.652344 0 L 9.652344 -1.703125 C 9.652344 -2.945312 9.257812 -3.902344 8.53125 -4.484375 Z M 5.707031 -6.226562 L 4.046875 -6.226562 L 4.046875 -7.78125 L 5.707031 -7.78125 C 6.328125 -7.78125 6.703125 -7.511719 6.703125 -6.992188 C 6.703125 -6.515625 6.328125 -6.226562 5.707031 -6.226562 Z M 5.707031 -6.226562 "/></g></g></g><g fill="#000000" fill-opacity="1"><g transform="translate(135.340405, 308.847227)"><g><path d="M 7.449219 -1.515625 L 7.988281 0 L 11.269531 0 L 7.429688 -10.375 L 4.027344 -10.375 L 0.144531 0 L 3.402344 0 L 3.964844 -1.515625 Z M 6.539062 -4.003906 L 4.878906 -4.003906 L 5.726562 -6.847656 Z M 6.539062 -4.003906 "/></g></g></g><g fill="#000000" fill-opacity="1"><g transform="translate(146.727893, 308.847227)"><g><path d="M 6.164062 -10.375 L 0.683594 -10.375 L 0.683594 0 L 4.046875 0 L 4.046875 -3.671875 L 6.433594 -3.671875 C 8.53125 -3.820312 9.710938 -4.980469 9.710938 -6.992188 C 9.710938 -9.152344 8.425781 -10.375 6.164062 -10.375 Z M 5.707031 -6.226562 L 4.046875 -6.226562 L 4.046875 -7.78125 L 5.707031 -7.78125 C 6.328125 -7.78125 6.703125 -7.492188 6.703125 -6.992188 C 6.703125 -6.515625 6.328125 -6.226562 5.707031 -6.226562 Z M 5.707031 -6.226562 "/></g></g></g><g fill="#000000" fill-opacity="1"><g transform="translate(156.870848, 308.847227)"><g><path d="M 9.710938 -10.375 L 6.328125 -10.375 L 6.328125 -6.640625 L 4.046875 -6.640625 L 4.046875 -10.375 L 0.683594 -10.375 L 0.683594 0 L 4.046875 0 L 4.046875 -3.734375 L 6.328125 -3.734375 L 6.328125 0 L 9.710938 0 Z M 9.710938 -10.375 "/></g></g></g><g fill="#000000" fill-opacity="1"><g transform="translate(167.241964, 308.847227)"><g><path d="M 4.046875 -10.375 L 0.683594 -10.375 L 0.683594 0 L 4.046875 0 Z M 4.046875 -10.375 "/></g></g></g><g fill="#000000" fill-opacity="1"><g transform="translate(171.971189, 308.847227)"><g><path d="M 6.539062 -4.335938 L 9.796875 -3.820312 C 9.277344 -1.285156 7.636719 0.167969 5.230469 0.167969 C 2.242188 0.167969 0.558594 -1.785156 0.558594 -5.1875 C 0.558594 -8.613281 2.242188 -10.542969 5.230469 -10.542969 C 7.636719 -10.542969 9.277344 -9.109375 9.796875 -6.558594 L 6.539062 -6.039062 C 6.371094 -7.054688 5.894531 -7.636719 5.25 -7.636719 C 4.378906 -7.636719 3.882812 -6.765625 3.882812 -5.1875 C 3.882812 -3.632812 4.378906 -2.761719 5.25 -2.761719 C 5.933594 -2.761719 6.390625 -3.320312 6.539062 -4.335938 Z M 6.539062 -4.335938 "/></g></g></g><g fill="#000000" fill-opacity="1"><g transform="translate(182.30082, 308.847227)"><g/></g></g><g fill="#000000" fill-opacity="1"><g transform="translate(185.101018, 308.847227)"><g><path d="M 4.835938 -10.375 L 0.683594 -10.375 L 0.683594 0 L 4.835938 0 C 7.949219 0 9.710938 -1.867188 9.710938 -5.1875 C 9.710938 -8.507812 7.949219 -10.375 4.835938 -10.375 Z M 5.042969 -2.90625 L 4.046875 -2.90625 L 4.046875 -7.472656 L 5.042969 -7.472656 C 5.894531 -7.472656 6.390625 -6.660156 6.390625 -5.1875 C 6.390625 -3.734375 5.894531 -2.90625 5.042969 -2.90625 Z M 5.042969 -2.90625 "/></g></g></g><g fill="#000000" fill-opacity="1"><g transform="translate(195.326942, 308.847227)"><g><path d="M 4.046875 -7.78125 L 8.632812 -7.78125 L 8.632812 -10.375 L 0.683594 -10.375 L 0.683594 0 L 8.632812 0 L 8.632812 -2.59375 L 4.046875 -2.59375 L 4.046875 -3.941406 L 8.632812 -3.941406 L 8.632812 -6.433594 L 4.046875 -6.433594 Z M 4.046875 -7.78125 "/></g></g></g><g fill="#000000" fill-opacity="1"><g transform="translate(204.640201, 308.847227)"><g><path d="M 5.269531 0.144531 C 2.925781 0.167969 1.265625 -0.953125 0.683594 -2.945312 L 3.445312 -3.695312 C 3.695312 -2.925781 4.359375 -2.492188 5.269531 -2.492188 C 6.289062 -2.492188 6.871094 -2.71875 6.871094 -3.132812 C 6.871094 -4.335938 0.414062 -3.859375 0.414062 -7.347656 C 0.414062 -9.378906 2.136719 -10.542969 5.210938 -10.542969 C 7.574219 -10.542969 9.234375 -9.421875 9.796875 -7.429688 L 7.054688 -6.683594 C 6.808594 -7.492188 6.144531 -7.949219 5.210938 -7.949219 C 4.191406 -7.949219 3.632812 -7.699219 3.632812 -7.265625 C 3.632812 -6.207031 10.066406 -6.539062 10.066406 -3.050781 C 10.066406 -0.976562 8.34375 0.1875 5.269531 0.144531 Z M 5.269531 0.144531 "/></g></g></g><g fill="#000000" fill-opacity="1"><g transform="translate(215.218741, 308.847227)"><g><path d="M 4.046875 -10.375 L 0.683594 -10.375 L 0.683594 0 L 4.046875 0 Z M 4.046875 -10.375 "/></g></g></g><g fill="#000000" fill-opacity="1"><g transform="translate(219.947966, 308.847227)"><g><path d="M 9.941406 0 L 10.003906 -5.5 L 5.230469 -5.5 L 5.230469 -3.652344 L 6.183594 -3.652344 C 5.976562 -3.070312 5.664062 -2.761719 5.292969 -2.761719 C 4.378906 -2.761719 3.882812 -3.632812 3.882812 -5.1875 C 3.882812 -6.765625 4.378906 -7.636719 5.292969 -7.636719 C 5.996094 -7.636719 6.453125 -7.078125 6.621094 -6.058594 L 9.898438 -6.640625 C 9.484375 -9.132812 7.867188 -10.542969 5.269531 -10.542969 C 2.242188 -10.542969 0.558594 -8.613281 0.558594 -5.1875 C 0.558594 -1.785156 2.242188 0.167969 5.269531 0.167969 C 6.351562 0.167969 7.285156 -0.289062 8.074219 -1.140625 L 8.445312 0 Z M 9.941406 0 "/></g></g></g><g fill="#000000" fill-opacity="1"><g transform="translate(230.609476, 308.847227)"><g><path d="M 0.683594 0 L 4.046875 0 L 4.046875 -4.816406 L 6.871094 -0.0195312 L 9.710938 0 L 9.710938 -10.375 L 6.328125 -10.375 L 6.328125 -5.582031 L 3.527344 -10.398438 L 0.683594 -10.398438 Z M 0.683594 0 "/></g></g></g><g fill="#000000" fill-opacity="1"><g transform="translate(240.980592, 308.847227)"><g><path d="M 4.046875 -7.78125 L 8.632812 -7.78125 L 8.632812 -10.375 L 0.683594 -10.375 L 0.683594 0 L 8.632812 0 L 8.632812 -2.59375 L 4.046875 -2.59375 L 4.046875 -3.941406 L 8.632812 -3.941406 L 8.632812 -6.433594 L 4.046875 -6.433594 Z M 4.046875 -7.78125 "/></g></g></g><g fill="#000000" fill-opacity="1"><g transform="translate(250.29385, 308.847227)"><g><path d="M 8.53125 -4.484375 C 9.296875 -5.023438 9.710938 -5.894531 9.710938 -7.054688 C 9.710938 -9.171875 8.425781 -10.375 6.164062 -10.375 L 0.683594 -10.375 L 0.683594 0 L 4.046875 0 L 4.046875 -3.734375 L 5.292969 -3.734375 C 6.121094 -3.589844 6.578125 -3.03125 6.578125 -2.136719 L 6.578125 0 L 9.652344 0 L 9.652344 -1.703125 C 9.652344 -2.945312 9.257812 -3.902344 8.53125 -4.484375 Z M 5.707031 -6.226562 L 4.046875 -6.226562 L 4.046875 -7.78125 L 5.707031 -7.78125 C 6.328125 -7.78125 6.703125 -7.511719 6.703125 -6.992188 C 6.703125 -6.515625 6.328125 -6.226562 5.707031 -6.226562 Z M 5.707031 -6.226562 "/></g></g></g></svg>